<?xml version="1.0" encoding="UTF-8" standalone="no"?>
<!DOCTYPE svg PUBLIC "-//W3C//DTD SVG 1.1//EN"
 "http://www.w3.org/Graphics/SVG/1.1/DTD/svg11.dtd">
<!-- Generated by graphviz version 2.30.1 (20130222.1704)
 -->
<!-- Title: G Pages: 1 -->
<svg width="454pt" height="2689pt"
 viewBox="0.00 0.00 454.00 2689.00" xmlns="http://www.w3.org/2000/svg" xmlns:xlink="http://www.w3.org/1999/xlink">
<g id="graph0" class="graph" transform="scale(1 1) rotate(0) translate(4 2685)">
<title>G</title>
<polygon fill="white" stroke="white" points="-4,5 -4,-2685 451,-2685 451,5 -4,5"/>
<g id="clust1" class="cluster"><title>cluster_global</title>
<path fill="none" stroke="gray" d="M232,-8C232,-8 426,-8 426,-8 432,-8 438,-14 438,-20 438,-20 438,-2661 438,-2661 438,-2667 432,-2673 426,-2673 426,-2673 232,-2673 232,-2673 226,-2673 220,-2667 220,-2661 220,-2661 220,-20 220,-20 220,-14 226,-8 232,-8"/>
<text text-anchor="middle" x="329" y="-2658" font-family="Times,serif" font-size="11.00" fill="gray">global</text>
</g>
<!-- \\defaultCtrl -->
<g id="node1" class="node"><title>\\defaultCtrl</title>
<g id="a_node1"><a xlink:href="modules.site_internet.controllers.default.classic.html" xlink:title="defaultCtrl" target="_parent">
<polygon fill="none" stroke="black" points="373.113,-2644 284.887,-2644 284.887,-2608 373.113,-2608 373.113,-2644"/>
<text text-anchor="middle" x="329" y="-2621.6" font-family="Courier,monospace" font-size="11.00">defaultCtrl</text>
</a>
</g>
</g>
<!-- \\jController -->
<g id="node50" class="node"><title>\\jController</title>
<ellipse fill="none" stroke="black" cx="78" cy="-2626" rx="56.1921" ry="18"/>
<text text-anchor="middle" x="78" y="-2620.4" font-family="Times,serif" font-size="14.00" fill="gray">\jController</text>
</g>
<!-- \\defaultCtrl&#45;&gt;\\jController -->
<g id="edge1" class="edge"><title>\\defaultCtrl&#45;&gt;\\jController</title>
<path fill="none" stroke="black" d="M284.628,-2626C245.977,-2626 188.849,-2626 144.611,-2626"/>
<polygon fill="none" stroke="black" points="144.522,-2622.5 134.522,-2626 144.522,-2629.5 144.522,-2622.5"/>
</g>
<!-- \\site_internetModuleInstaller -->
<g id="node2" class="node"><title>\\site_internetModuleInstaller</title>
<g id="a_node2"><a xlink:href="modules.site_internet.install.install.html" xlink:title="site_internetModuleInstaller" target="_parent">
<polygon fill="none" stroke="black" points="429.33,-2590 228.67,-2590 228.67,-2554 429.33,-2554 429.33,-2590"/>
<text text-anchor="middle" x="329" y="-2567.6" font-family="Courier,monospace" font-size="11.00">site_internetModuleInstaller</text>
</a>
</g>
</g>
<!-- \\jInstallerModule -->
<g id="node51" class="node"><title>\\jInstallerModule</title>
<ellipse fill="none" stroke="black" cx="78" cy="-2572" rx="78.1669" ry="18"/>
<text text-anchor="middle" x="78" y="-2566.4" font-family="Times,serif" font-size="14.00" fill="gray">\jInstallerModule</text>
</g>
<!-- \\site_internetModuleInstaller&#45;&gt;\\jInstallerModule -->
<g id="edge2" class="edge"><title>\\site_internetModuleInstaller&#45;&gt;\\jInstallerModule</title>
<path fill="none" stroke="black" d="M228.515,-2572C207.888,-2572 186.305,-2572 166.16,-2572"/>
<polygon fill="none" stroke="black" points="166.084,-2568.5 156.084,-2572 166.084,-2575.5 166.084,-2568.5"/>
</g>
<!-- \\AbarreLateralZone -->
<g id="node3" class="node"><title>\\AbarreLateralZone</title>
<g id="a_node3"><a xlink:href="modules.site_internet.zones.abarrelateral.zone.html" xlink:title="AbarreLateralZone" target="_parent">
<polygon fill="none" stroke="black" points="393.218,-2536 264.782,-2536 264.782,-2500 393.218,-2500 393.218,-2536"/>
<text text-anchor="middle" x="329" y="-2513.6" font-family="Courier,monospace" font-size="11.00">AbarreLateralZone</text>
</a>
</g>
</g>
<!-- \\jZone -->
<g id="node52" class="node"><title>\\jZone</title>
<ellipse fill="none" stroke="black" cx="78" cy="-1303" rx="36.4907" ry="18"/>
<text text-anchor="middle" x="78" y="-1297.4" font-family="Times,serif" font-size="14.00" fill="gray">\jZone</text>
</g>
<!-- \\AbarreLateralZone&#45;&gt;\\jZone -->
<g id="edge3" class="edge"><title>\\AbarreLateralZone&#45;&gt;\\jZone</title>
<path fill="none" stroke="black" d="M264.878,-2515.07C248.07,-2511.19 231.432,-2503.98 220,-2491 140.588,-2400.82 89.5274,-1502.87 80.4538,-1331.26"/>
<polygon fill="none" stroke="black" points="83.936,-1330.83 79.917,-1321.02 76.9456,-1331.19 83.936,-1330.83"/>
</g>
<!-- \\accueilZone -->
<g id="node4" class="node"><title>\\accueilZone</title>
<g id="a_node4"><a xlink:href="modules.site_internet.zones.accueil.zone.html" xlink:title="accueilZone" target="_parent">
<polygon fill="none" stroke="black" points="373.113,-2482 284.887,-2482 284.887,-2446 373.113,-2446 373.113,-2482"/>
<text text-anchor="middle" x="329" y="-2459.6" font-family="Courier,monospace" font-size="11.00">accueilZone</text>
</a>
</g>
</g>
<!-- \\accueilZone&#45;&gt;\\jZone -->
<g id="edge4" class="edge"><title>\\accueilZone&#45;&gt;\\jZone</title>
<path fill="none" stroke="black" d="M284.684,-2464.23C262.141,-2461.95 236.016,-2455.09 220,-2437 144.106,-2351.29 90.4456,-1498.29 80.6219,-1331.28"/>
<polygon fill="none" stroke="black" points="84.1033,-1330.86 80.0264,-1321.08 77.1152,-1331.27 84.1033,-1330.86"/>
</g>
<!-- \\AfooterZone -->
<g id="node5" class="node"><title>\\AfooterZone</title>
<g id="a_node5"><a xlink:href="modules.site_internet.zones.afooter.zone.html" xlink:title="AfooterZone" target="_parent">
<polygon fill="none" stroke="black" points="373.113,-2428 284.887,-2428 284.887,-2392 373.113,-2392 373.113,-2428"/>
<text text-anchor="middle" x="329" y="-2405.6" font-family="Courier,monospace" font-size="11.00">AfooterZone</text>
</a>
</g>
</g>
<!-- \\AfooterZone&#45;&gt;\\jZone -->
<g id="edge5" class="edge"><title>\\AfooterZone&#45;&gt;\\jZone</title>
<path fill="none" stroke="black" d="M284.727,-2410.2C262.197,-2407.9 236.071,-2401.04 220,-2383 75.9661,-2221.35 76.7922,-1484.68 78.5681,-1331.1"/>
<polygon fill="none" stroke="black" points="82.0681,-1331.11 78.6956,-1321.07 75.0687,-1331.03 82.0681,-1331.11"/>
</g>
<!-- \\ajoutEquipeZone -->
<g id="node6" class="node"><title>\\ajoutEquipeZone</title>
<g id="a_node6"><a xlink:href="modules.site_internet.zones.ajoutequipe.zone.html" xlink:title="ajoutEquipeZone" target="_parent">
<polygon fill="none" stroke="black" points="386.516,-2374 271.484,-2374 271.484,-2338 386.516,-2338 386.516,-2374"/>
<text text-anchor="middle" x="329" y="-2351.6" font-family="Courier,monospace" font-size="11.00">ajoutEquipeZone</text>
</a>
</g>
</g>
<!-- \\ajoutEquipeZone&#45;&gt;\\jZone -->
<g id="edge6" class="edge"><title>\\ajoutEquipeZone&#45;&gt;\\jZone</title>
<path fill="none" stroke="black" d="M271.222,-2354.22C252.402,-2350.73 232.97,-2343.46 220,-2329 83.1027,-2176.4 78.2145,-1481.52 78.7795,-1331.58"/>
<polygon fill="none" stroke="black" points="82.2804,-1331.38 78.8302,-1321.36 75.2805,-1331.34 82.2804,-1331.38"/>
</g>
<!-- \\ajouterAnnonceZone -->
<g id="node7" class="node"><title>\\ajouterAnnonceZone</title>
<g id="a_node7"><a xlink:href="modules.site_internet.zones.ajouterannonce.zone.html" xlink:title="ajouterAnnonceZone" target="_parent">
<polygon fill="none" stroke="black" points="396.319,-2320 261.681,-2320 261.681,-2284 396.319,-2284 396.319,-2320"/>
<text text-anchor="middle" x="329" y="-2297.6" font-family="Courier,monospace" font-size="11.00">ajouterAnnonceZone</text>
</a>
</g>
</g>
<!-- \\ajouterAnnonceZone&#45;&gt;\\jZone -->
<g id="edge7" class="edge"><title>\\ajouterAnnonceZone&#45;&gt;\\jZone</title>
<path fill="none" stroke="black" d="M261.433,-2297.98C245.891,-2293.92 230.756,-2286.9 220,-2275 90.039,-2131.21 79.704,-1476.33 79.0192,-1331.44"/>
<polygon fill="none" stroke="black" points="82.5184,-1331.16 78.9834,-1321.17 75.5184,-1331.18 82.5184,-1331.16"/>
</g>
<!-- \\ajouterOrganisateurZone -->
<g id="node8" class="node"><title>\\ajouterOrganisateurZone</title>
<g id="a_node8"><a xlink:href="modules.site_internet.zones.ajouterorganisateur.zone.html" xlink:title="ajouterOrganisateurZone" target="_parent">
<polygon fill="none" stroke="black" points="412.825,-2266 245.175,-2266 245.175,-2230 412.825,-2230 412.825,-2266"/>
<text text-anchor="middle" x="329" y="-2243.6" font-family="Courier,monospace" font-size="11.00">ajouterOrganisateurZone</text>
</a>
</g>
</g>
<!-- \\ajouterOrganisateurZone&#45;&gt;\\jZone -->
<g id="edge8" class="edge"><title>\\ajouterOrganisateurZone&#45;&gt;\\jZone</title>
<path fill="none" stroke="black" d="M244.987,-2238.27C235.572,-2234.16 226.9,-2228.57 220,-2221 97.0599,-2086.12 81.2917,-1471.98 79.2886,-1331.63"/>
<polygon fill="none" stroke="black" points="82.7839,-1331.24 79.1542,-1321.28 75.7845,-1331.33 82.7839,-1331.24"/>
</g>
<!-- \\ajoutParticipantZone -->
<g id="node9" class="node"><title>\\ajoutParticipantZone</title>
<g id="a_node9"><a xlink:href="modules.site_internet.zones.ajoutparticipant.zone.html" xlink:title="ajoutParticipantZone" target="_parent">
<polygon fill="none" stroke="black" points="403.021,-2212 254.979,-2212 254.979,-2176 403.021,-2176 403.021,-2212"/>
<text text-anchor="middle" x="329" y="-2189.6" font-family="Courier,monospace" font-size="11.00">ajoutParticipantZone</text>
</a>
</g>
</g>
<!-- \\ajoutParticipantZone&#45;&gt;\\jZone -->
<g id="edge9" class="edge"><title>\\ajoutParticipantZone&#45;&gt;\\jZone</title>
<path fill="none" stroke="black" d="M254.87,-2187.9C241.736,-2183.67 229.291,-2177.1 220,-2167 104.018,-2040.94 82.9655,-1467 79.5904,-1331.66"/>
<polygon fill="none" stroke="black" points="83.0811,-1331.22 79.346,-1321.3 76.0831,-1331.38 83.0811,-1331.22"/>
</g>
<!-- \\AmenuZone -->
<g id="node10" class="node"><title>\\AmenuZone</title>
<g id="a_node10"><a xlink:href="modules.site_internet.zones.amenu.zone.html" xlink:title="AmenuZone" target="_parent">
<polygon fill="none" stroke="black" points="366.911,-2158 291.089,-2158 291.089,-2122 366.911,-2122 366.911,-2158"/>
<text text-anchor="middle" x="329" y="-2135.6" font-family="Courier,monospace" font-size="11.00">AmenuZone</text>
</a>
</g>
</g>
<!-- \\AmenuZone&#45;&gt;\\jZone -->
<g id="edge10" class="edge"><title>\\AmenuZone&#45;&gt;\\jZone</title>
<path fill="none" stroke="black" d="M291.115,-2140.47C267.477,-2138.71 237.965,-2132.32 220,-2113 110.912,-1995.69 84.7234,-1461.4 79.9259,-1331.52"/>
<polygon fill="none" stroke="black" points="83.4127,-1331.08 79.5594,-1321.21 76.4171,-1331.33 83.4127,-1331.08"/>
</g>
<!-- \\changerMDPZone -->
<g id="node11" class="node"><title>\\changerMDPZone</title>
<g id="a_node11"><a xlink:href="modules.site_internet.zones.changermdp.zone.html" xlink:title="changerMDPZone" target="_parent">
<polygon fill="none" stroke="black" points="383.416,-2104 274.584,-2104 274.584,-2068 383.416,-2068 383.416,-2104"/>
<text text-anchor="middle" x="329" y="-2081.6" font-family="Courier,monospace" font-size="11.00">changerMDPZone</text>
</a>
</g>
</g>
<!-- \\changerMDPZone&#45;&gt;\\jZone -->
<g id="edge11" class="edge"><title>\\changerMDPZone&#45;&gt;\\jZone</title>
<path fill="none" stroke="black" d="M274.677,-2084.42C254.97,-2081.11 234.041,-2073.92 220,-2059 117.741,-1950.35 86.5633,-1455.16 80.2959,-1331.2"/>
<polygon fill="none" stroke="black" points="83.7819,-1330.83 79.7952,-1321.01 76.7903,-1331.17 83.7819,-1330.83"/>
</g>
<!-- \\classerAnnonceZone -->
<g id="node12" class="node"><title>\\classerAnnonceZone</title>
<g id="a_node12"><a xlink:href="modules.site_internet.zones.classerannonce.zone.html" xlink:title="classerAnnonceZone" target="_parent">
<polygon fill="none" stroke="black" points="396.319,-2050 261.681,-2050 261.681,-2014 396.319,-2014 396.319,-2050"/>
<text text-anchor="middle" x="329" y="-2027.6" font-family="Courier,monospace" font-size="11.00">classerAnnonceZone</text>
</a>
</g>
</g>
<!-- \\classerAnnonceZone&#45;&gt;\\jZone -->
<g id="edge12" class="edge"><title>\\classerAnnonceZone&#45;&gt;\\jZone</title>
<path fill="none" stroke="black" d="M261.589,-2027.5C246.137,-2023.44 231.008,-2016.54 220,-2005 124.606,-1905.04 88.5617,-1449.3 80.7268,-1331.08"/>
<polygon fill="none" stroke="black" points="84.2141,-1330.77 80.0746,-1321.02 77.2287,-1331.22 84.2141,-1330.77"/>
</g>
<!-- \\contactZone -->
<g id="node13" class="node"><title>\\contactZone</title>
<g id="a_node13"><a xlink:href="modules.site_internet.zones.contact.zone.html" xlink:title="contactZone" target="_parent">
<polygon fill="none" stroke="black" points="373.113,-1996 284.887,-1996 284.887,-1960 373.113,-1960 373.113,-1996"/>
<text text-anchor="middle" x="329" y="-1973.6" font-family="Courier,monospace" font-size="11.00">contactZone</text>
</a>
</g>
</g>
<!-- \\contactZone&#45;&gt;\\jZone -->
<g id="edge13" class="edge"><title>\\contactZone&#45;&gt;\\jZone</title>
<path fill="none" stroke="black" d="M284.777,-1977.59C262.544,-1975.08 236.684,-1968.2 220,-1951 131.573,-1859.81 90.83,-1444.41 81.2646,-1331.44"/>
<polygon fill="none" stroke="black" points="84.7284,-1330.85 80.4121,-1321.18 77.7525,-1331.43 84.7284,-1330.85"/>
</g>
<!-- \\creationEquipeZone -->
<g id="node14" class="node"><title>\\creationEquipeZone</title>
<g id="a_node14"><a xlink:href="modules.site_internet.zones.creationequipe.zone.html" xlink:title="creationEquipeZone" target="_parent">
<polygon fill="none" stroke="black" points="396.319,-1942 261.681,-1942 261.681,-1906 396.319,-1906 396.319,-1942"/>
<text text-anchor="middle" x="329" y="-1919.6" font-family="Courier,monospace" font-size="11.00">creationEquipeZone</text>
</a>
</g>
</g>
<!-- \\creationEquipeZone&#45;&gt;\\jZone -->
<g id="edge14" class="edge"><title>\\creationEquipeZone&#45;&gt;\\jZone</title>
<path fill="none" stroke="black" d="M261.582,-1919.16C246.223,-1915.09 231.139,-1908.27 220,-1897 138.342,-1814.36 93.1406,-1437.67 81.8383,-1331.14"/>
<polygon fill="none" stroke="black" points="85.314,-1330.73 80.7936,-1321.14 78.3519,-1331.45 85.314,-1330.73"/>
</g>
<!-- \\devenirpartenaireZone -->
<g id="node15" class="node"><title>\\devenirpartenaireZone</title>
<g id="a_node15"><a xlink:href="modules.site_internet.zones.devenirpartenaire.zone.html" xlink:title="devenirpartenaireZone" target="_parent">
<polygon fill="none" stroke="black" points="406.123,-1888 251.877,-1888 251.877,-1852 406.123,-1852 406.123,-1888"/>
<text text-anchor="middle" x="329" y="-1865.6" font-family="Courier,monospace" font-size="11.00">devenirpartenaireZone</text>
</a>
</g>
</g>
<!-- \\devenirpartenaireZone&#45;&gt;\\jZone -->
<g id="edge15" class="edge"><title>\\devenirpartenaireZone&#45;&gt;\\jZone</title>
<path fill="none" stroke="black" d="M251.711,-1861.9C239.938,-1857.74 228.792,-1851.7 220,-1843 145.162,-1768.94 95.7705,-1431.44 82.5568,-1331.17"/>
<polygon fill="none" stroke="black" points="86.0179,-1330.64 81.257,-1321.18 79.0764,-1331.55 86.0179,-1330.64"/>
</g>
<!-- \\environnementZone -->
<g id="node16" class="node"><title>\\environnementZone</title>
<g id="a_node16"><a xlink:href="modules.site_internet.zones.environnement.zone.html" xlink:title="environnementZone" target="_parent">
<polygon fill="none" stroke="black" points="393.218,-1834 264.782,-1834 264.782,-1798 393.218,-1798 393.218,-1834"/>
<text text-anchor="middle" x="329" y="-1811.6" font-family="Courier,monospace" font-size="11.00">environnementZone</text>
</a>
</g>
</g>
<!-- \\environnementZone&#45;&gt;\\jZone -->
<g id="edge16" class="edge"><title>\\environnementZone&#45;&gt;\\jZone</title>
<path fill="none" stroke="black" d="M264.775,-1811.49C248.462,-1807.52 232.11,-1800.67 220,-1789 86.7809,-1660.67 77.3181,-1414.69 78.1575,-1331.39"/>
<polygon fill="none" stroke="black" points="81.6603,-1331.23 78.3226,-1321.17 74.6613,-1331.12 81.6603,-1331.23"/>
</g>
<!-- \\equipeZone -->
<g id="node17" class="node"><title>\\equipeZone</title>
<g id="a_node17"><a xlink:href="modules.site_internet.zones.equipe.zone.html" xlink:title="equipeZone" target="_parent">
<polygon fill="none" stroke="black" points="370.011,-1780 287.989,-1780 287.989,-1744 370.011,-1744 370.011,-1780"/>
<text text-anchor="middle" x="329" y="-1757.6" font-family="Courier,monospace" font-size="11.00">equipeZone</text>
</a>
</g>
</g>
<!-- \\equipeZone&#45;&gt;\\jZone -->
<g id="edge17" class="edge"><title>\\equipeZone&#45;&gt;\\jZone</title>
<path fill="none" stroke="black" d="M287.837,-1761.18C265.31,-1758.67 238.169,-1751.93 220,-1735 100.348,-1623.5 82.0198,-1409.3 79.3764,-1331.84"/>
<polygon fill="none" stroke="black" points="82.8639,-1331.34 79.09,-1321.44 75.8665,-1331.53 82.8639,-1331.34"/>
</g>
<!-- \\equipeAventureZone -->
<g id="node18" class="node"><title>\\equipeAventureZone</title>
<g id="a_node18"><a xlink:href="modules.site_internet.zones.equipeaventure.zone.html" xlink:title="equipeAventureZone" target="_parent">
<polygon fill="none" stroke="black" points="396.319,-1726 261.681,-1726 261.681,-1690 396.319,-1690 396.319,-1726"/>
<text text-anchor="middle" x="329" y="-1703.6" font-family="Courier,monospace" font-size="11.00">equipeAventureZone</text>
</a>
</g>
</g>
<!-- \\equipeAventureZone&#45;&gt;\\jZone -->
<g id="edge18" class="edge"><title>\\equipeAventureZone&#45;&gt;\\jZone</title>
<path fill="none" stroke="black" d="M261.677,-1701.95C246.584,-1697.89 231.6,-1691.37 220,-1681 113.423,-1585.74 87.1629,-1402.14 80.8951,-1331.58"/>
<polygon fill="none" stroke="black" points="84.3546,-1330.94 80.0516,-1321.26 77.3778,-1331.51 84.3546,-1330.94"/>
</g>
<!-- \\equipeExpertZone -->
<g id="node19" class="node"><title>\\equipeExpertZone</title>
<g id="a_node19"><a xlink:href="modules.site_internet.zones.equipeexpert.zone.html" xlink:title="equipeExpertZone" target="_parent">
<polygon fill="none" stroke="black" points="389.618,-1672 268.382,-1672 268.382,-1636 389.618,-1636 389.618,-1672"/>
<text text-anchor="middle" x="329" y="-1649.6" font-family="Courier,monospace" font-size="11.00">equipeExpertZone</text>
</a>
</g>
</g>
<!-- \\equipeExpertZone&#45;&gt;\\jZone -->
<g id="edge19" class="edge"><title>\\equipeExpertZone&#45;&gt;\\jZone</title>
<path fill="none" stroke="black" d="M268.245,-1649.04C251.141,-1645.14 233.495,-1638.43 220,-1627 126.18,-1547.55 92.8422,-1393.93 82.787,-1330.96"/>
<polygon fill="none" stroke="black" points="86.232,-1330.34 81.2684,-1320.98 79.3115,-1331.39 86.232,-1330.34"/>
</g>
<!-- \\erreurZone -->
<g id="node20" class="node"><title>\\erreurZone</title>
<g id="a_node20"><a xlink:href="modules.site_internet.zones.erreur.zone.html" xlink:title="erreurZone" target="_parent">
<polygon fill="none" stroke="black" points="370.011,-1618 287.989,-1618 287.989,-1582 370.011,-1582 370.011,-1618"/>
<text text-anchor="middle" x="329" y="-1595.6" font-family="Courier,monospace" font-size="11.00">erreurZone</text>
</a>
</g>
</g>
<!-- \\erreurZone&#45;&gt;\\jZone -->
<g id="edge20" class="edge"><title>\\erreurZone&#45;&gt;\\jZone</title>
<path fill="none" stroke="black" d="M287.794,-1597.88C265.801,-1594.9 239.205,-1588.13 220,-1573 139.023,-1509.21 99.6123,-1386.01 85.4182,-1330.87"/>
<polygon fill="none" stroke="black" points="88.7958,-1329.95 82.9836,-1321.09 82.0031,-1331.64 88.7958,-1329.95"/>
</g>
<!-- \\formContactZone -->
<g id="node21" class="node"><title>\\formContactZone</title>
<g id="a_node21"><a xlink:href="modules.site_internet.zones.formcontact.zone.html" xlink:title="formContactZone" target="_parent">
<polygon fill="none" stroke="black" points="386.516,-1564 271.484,-1564 271.484,-1528 386.516,-1528 386.516,-1564"/>
<text text-anchor="middle" x="329" y="-1541.6" font-family="Courier,monospace" font-size="11.00">formContactZone</text>
</a>
</g>
</g>
<!-- \\formContactZone&#45;&gt;\\jZone -->
<g id="edge21" class="edge"><title>\\formContactZone&#45;&gt;\\jZone</title>
<path fill="none" stroke="black" d="M271.327,-1540.03C253.686,-1536.11 234.957,-1529.65 220,-1519 151.346,-1470.12 107.433,-1376.38 88.9868,-1330.15"/>
<polygon fill="none" stroke="black" points="92.2274,-1328.82 85.3379,-1320.77 85.7043,-1331.36 92.2274,-1328.82"/>
</g>
<!-- \\inscriptionZone -->
<g id="node22" class="node"><title>\\inscriptionZone</title>
<g id="a_node22"><a xlink:href="modules.site_internet.zones.inscription.zone.html" xlink:title="inscriptionZone" target="_parent">
<polygon fill="none" stroke="black" points="386.516,-1510 271.484,-1510 271.484,-1474 386.516,-1474 386.516,-1510"/>
<text text-anchor="middle" x="329" y="-1487.6" font-family="Courier,monospace" font-size="11.00">inscriptionZone</text>
</a>
</g>
</g>
<!-- \\inscriptionZone&#45;&gt;\\jZone -->
<g id="edge22" class="edge"><title>\\inscriptionZone&#45;&gt;\\jZone</title>
<path fill="none" stroke="black" d="M271.321,-1484.59C253.967,-1480.59 235.408,-1474.44 220,-1465 163.143,-1430.16 116.912,-1364.93 94.2094,-1328.78"/>
<polygon fill="none" stroke="black" points="97.1792,-1326.93 88.9524,-1320.25 91.2203,-1330.6 97.1792,-1326.93"/>
</g>
<!-- \\inscriptionsClosesZone -->
<g id="node23" class="node"><title>\\inscriptionsClosesZone</title>
<g id="a_node23"><a xlink:href="modules.site_internet.zones.inscriptionscloses.zone.html" xlink:title="inscriptionsClosesZone" target="_parent">
<polygon fill="none" stroke="black" points="409.724,-1456 248.276,-1456 248.276,-1420 409.724,-1420 409.724,-1456"/>
<text text-anchor="middle" x="329" y="-1433.6" font-family="Courier,monospace" font-size="11.00">inscriptionsClosesZone</text>
</a>
</g>
</g>
<!-- \\inscriptionsClosesZone&#45;&gt;\\jZone -->
<g id="edge23" class="edge"><title>\\inscriptionsClosesZone&#45;&gt;\\jZone</title>
<path fill="none" stroke="black" d="M248.231,-1422.02C238.506,-1418.93 228.878,-1415.28 220,-1411 174.441,-1389.03 129.377,-1350.88 102.878,-1326.3"/>
<polygon fill="none" stroke="black" points="104.952,-1323.44 95.2707,-1319.14 100.154,-1328.54 104.952,-1323.44"/>
</g>
<!-- \\joindreEquipeZone -->
<g id="node24" class="node"><title>\\joindreEquipeZone</title>
<g id="a_node24"><a xlink:href="modules.site_internet.zones.joindreequipe.zone.html" xlink:title="joindreEquipeZone" target="_parent">
<polygon fill="none" stroke="black" points="393.218,-1402 264.782,-1402 264.782,-1366 393.218,-1366 393.218,-1402"/>
<text text-anchor="middle" x="329" y="-1379.6" font-family="Courier,monospace" font-size="11.00">joindreEquipeZone</text>
</a>
</g>
</g>
<!-- \\joindreEquipeZone&#45;&gt;\\jZone -->
<g id="edge24" class="edge"><title>\\joindreEquipeZone&#45;&gt;\\jZone</title>
<path fill="none" stroke="black" d="M264.822,-1369.57C250.02,-1365.81 234.378,-1361.53 220,-1357 183.995,-1345.65 143.875,-1329.98 115.666,-1318.44"/>
<polygon fill="none" stroke="black" points="116.791,-1315.12 106.212,-1314.55 114.125,-1321.59 116.791,-1315.12"/>
</g>
<!-- \\listingMailZone -->
<g id="node25" class="node"><title>\\listingMailZone</title>
<g id="a_node25"><a xlink:href="modules.site_internet.zones.listingmail.zone.html" xlink:title="listingMailZone" target="_parent">
<polygon fill="none" stroke="black" points="386.516,-1348 271.484,-1348 271.484,-1312 386.516,-1312 386.516,-1348"/>
<text text-anchor="middle" x="329" y="-1325.6" font-family="Courier,monospace" font-size="11.00">listingMailZone</text>
</a>
</g>
</g>
<!-- \\listingMailZone&#45;&gt;\\jZone -->
<g id="edge25" class="edge"><title>\\listingMailZone&#45;&gt;\\jZone</title>
<path fill="none" stroke="black" d="M271.186,-1323.84C226.462,-1318.99 164.994,-1312.32 123.727,-1307.85"/>
<polygon fill="none" stroke="black" points="124.012,-1304.36 113.693,-1306.76 123.257,-1311.32 124.012,-1304.36"/>
</g>
<!-- \\MDPoublieZone -->
<g id="node26" class="node"><title>\\MDPoublieZone</title>
<g id="a_node26"><a xlink:href="modules.site_internet.zones.mdpoublie.zone.html" xlink:title="MDPoublieZone" target="_parent">
<polygon fill="none" stroke="black" points="379.814,-1294 278.186,-1294 278.186,-1258 379.814,-1258 379.814,-1294"/>
<text text-anchor="middle" x="329" y="-1271.6" font-family="Courier,monospace" font-size="11.00">MDPoublieZone</text>
</a>
</g>
</g>
<!-- \\MDPoublieZone&#45;&gt;\\jZone -->
<g id="edge26" class="edge"><title>\\MDPoublieZone&#45;&gt;\\jZone</title>
<path fill="none" stroke="black" d="M277.911,-1281.43C232.815,-1286.32 167.145,-1293.44 123.767,-1298.15"/>
<polygon fill="none" stroke="black" points="123.351,-1294.67 113.787,-1299.23 124.106,-1301.63 123.351,-1294.67"/>
</g>
<!-- \\modifierequipeZone -->
<g id="node27" class="node"><title>\\modifierequipeZone</title>
<g id="a_node27"><a xlink:href="modules.site_internet.zones.modifierequipe.zone.html" xlink:title="modifierequipeZone" target="_parent">
<polygon fill="none" stroke="black" points="396.319,-1240 261.681,-1240 261.681,-1204 396.319,-1204 396.319,-1240"/>
<text text-anchor="middle" x="329" y="-1217.6" font-family="Courier,monospace" font-size="11.00">modifierequipeZone</text>
</a>
</g>
</g>
<!-- \\modifierequipeZone&#45;&gt;\\jZone -->
<g id="edge27" class="edge"><title>\\modifierequipeZone&#45;&gt;\\jZone</title>
<path fill="none" stroke="black" d="M261.679,-1237.24C247.82,-1240.8 233.364,-1244.79 220,-1249 183.995,-1260.35 143.875,-1276.02 115.666,-1287.56"/>
<polygon fill="none" stroke="black" points="114.125,-1284.41 106.212,-1291.45 116.791,-1290.88 114.125,-1284.41"/>
</g>
<!-- \\modifierequipebisZone -->
<g id="node28" class="node"><title>\\modifierequipebisZone</title>
<g id="a_node28"><a xlink:href="modules.site_internet.zones.modifierequipebis.zone.html" xlink:title="modifierequipebisZone" target="_parent">
<polygon fill="none" stroke="black" points="406.123,-1186 251.877,-1186 251.877,-1150 406.123,-1150 406.123,-1186"/>
<text text-anchor="middle" x="329" y="-1163.6" font-family="Courier,monospace" font-size="11.00">modifierequipebisZone</text>
</a>
</g>
</g>
<!-- \\modifierequipebisZone&#45;&gt;\\jZone -->
<g id="edge28" class="edge"><title>\\modifierequipebisZone&#45;&gt;\\jZone</title>
<path fill="none" stroke="black" d="M251.667,-1182.91C240.781,-1186.22 229.923,-1190.22 220,-1195 174.441,-1216.97 129.377,-1255.12 102.878,-1279.7"/>
<polygon fill="none" stroke="black" points="100.154,-1277.46 95.2707,-1286.86 104.952,-1282.56 100.154,-1277.46"/>
</g>
<!-- \\modifierParticipantZone -->
<g id="node29" class="node"><title>\\modifierParticipantZone</title>
<g id="a_node29"><a xlink:href="modules.site_internet.zones.modifierparticipant.zone.html" xlink:title="modifierParticipantZone" target="_parent">
<polygon fill="none" stroke="black" points="412.825,-1132 245.175,-1132 245.175,-1096 412.825,-1096 412.825,-1132"/>
<text text-anchor="middle" x="329" y="-1109.6" font-family="Courier,monospace" font-size="11.00">modifierParticipantZone</text>
</a>
</g>
</g>
<!-- \\modifierParticipantZone&#45;&gt;\\jZone -->
<g id="edge29" class="edge"><title>\\modifierParticipantZone&#45;&gt;\\jZone</title>
<path fill="none" stroke="black" d="M245.071,-1129.11C236.287,-1132.34 227.745,-1136.25 220,-1141 163.143,-1175.84 116.912,-1241.07 94.2094,-1277.22"/>
<polygon fill="none" stroke="black" points="91.2203,-1275.4 88.9524,-1285.75 97.1792,-1279.07 91.2203,-1275.4"/>
</g>
<!-- \\modifierparticipantbisZone -->
<g id="node30" class="node"><title>\\modifierparticipantbisZone</title>
<g id="a_node30"><a xlink:href="modules.site_internet.zones.modifierparticipantbis.zone.html" xlink:title="modifierparticipantbisZone" target="_parent">
<polygon fill="none" stroke="black" points="422.628,-1078 235.372,-1078 235.372,-1042 422.628,-1042 422.628,-1078"/>
<text text-anchor="middle" x="329" y="-1055.6" font-family="Courier,monospace" font-size="11.00">modifierparticipantbisZone</text>
</a>
</g>
</g>
<!-- \\modifierparticipantbisZone&#45;&gt;\\jZone -->
<g id="edge30" class="edge"><title>\\modifierparticipantbisZone&#45;&gt;\\jZone</title>
<path fill="none" stroke="black" d="M235.145,-1078.11C229.823,-1080.69 224.723,-1083.64 220,-1087 151.346,-1135.88 107.433,-1229.62 88.9868,-1275.85"/>
<polygon fill="none" stroke="black" points="85.7043,-1274.64 85.3379,-1285.23 92.2274,-1277.18 85.7043,-1274.64"/>
</g>
<!-- \\nouveauParticipantZone -->
<g id="node31" class="node"><title>\\nouveauParticipantZone</title>
<g id="a_node31"><a xlink:href="modules.site_internet.zones.nouveauparticipant.zone.html" xlink:title="nouveauParticipantZone" target="_parent">
<polygon fill="none" stroke="black" points="409.724,-1024 248.276,-1024 248.276,-988 409.724,-988 409.724,-1024"/>
<text text-anchor="middle" x="329" y="-1001.6" font-family="Courier,monospace" font-size="11.00">nouveauParticipantZone</text>
</a>
</g>
</g>
<!-- \\nouveauParticipantZone&#45;&gt;\\jZone -->
<g id="edge31" class="edge"><title>\\nouveauParticipantZone&#45;&gt;\\jZone</title>
<path fill="none" stroke="black" d="M248.256,-1017.63C238.097,-1021.42 228.35,-1026.42 220,-1033 139.023,-1096.79 99.6123,-1219.99 85.4182,-1275.13"/>
<polygon fill="none" stroke="black" points="82.0031,-1274.36 82.9836,-1284.91 88.7958,-1276.05 82.0031,-1274.36"/>
</g>
<!-- \\partenaireZone -->
<g id="node32" class="node"><title>\\partenaireZone</title>
<g id="a_node32"><a xlink:href="modules.site_internet.zones.partenaire.zone.html" xlink:title="partenaireZone" target="_parent">
<polygon fill="none" stroke="black" points="383.416,-970 274.584,-970 274.584,-934 383.416,-934 383.416,-970"/>
<text text-anchor="middle" x="329" y="-947.6" font-family="Courier,monospace" font-size="11.00">partenaireZone</text>
</a>
</g>
</g>
<!-- \\partenaireZone&#45;&gt;\\jZone -->
<g id="edge32" class="edge"><title>\\partenaireZone&#45;&gt;\\jZone</title>
<path fill="none" stroke="black" d="M274.66,-955.619C255.642,-959.252 235.192,-966.135 220,-979 126.18,-1058.45 92.8422,-1212.07 82.787,-1275.04"/>
<polygon fill="none" stroke="black" points="79.3115,-1274.61 81.2684,-1285.02 86.232,-1275.66 79.3115,-1274.61"/>
</g>
<!-- \\participantEquipeZone -->
<g id="node33" class="node"><title>\\participantEquipeZone</title>
<g id="a_node33"><a xlink:href="modules.site_internet.zones.participantequipe.zone.html" xlink:title="participantEquipeZone" target="_parent">
<polygon fill="none" stroke="black" points="406.123,-916 251.877,-916 251.877,-880 406.123,-880 406.123,-916"/>
<text text-anchor="middle" x="329" y="-893.6" font-family="Courier,monospace" font-size="11.00">participantEquipeZone</text>
</a>
</g>
</g>
<!-- \\participantEquipeZone&#45;&gt;\\jZone -->
<g id="edge33" class="edge"><title>\\participantEquipeZone&#45;&gt;\\jZone</title>
<path fill="none" stroke="black" d="M251.605,-907.161C240.052,-911.222 229.006,-916.95 220,-925 113.423,-1020.26 87.1629,-1203.86 80.8951,-1274.42"/>
<polygon fill="none" stroke="black" points="77.3778,-1274.49 80.0516,-1284.74 84.3546,-1275.06 77.3778,-1274.49"/>
</g>
<!-- \\participantEtatZone -->
<g id="node34" class="node"><title>\\participantEtatZone</title>
<g id="a_node34"><a xlink:href="modules.site_internet.zones.participantetat.zone.html" xlink:title="participantEtatZone" target="_parent">
<polygon fill="none" stroke="black" points="399.921,-862 258.079,-862 258.079,-826 399.921,-826 399.921,-862"/>
<text text-anchor="middle" x="329" y="-839.6" font-family="Courier,monospace" font-size="11.00">participantEtatZone</text>
</a>
</g>
</g>
<!-- \\participantEtatZone&#45;&gt;\\jZone -->
<g id="edge34" class="edge"><title>\\participantEtatZone&#45;&gt;\\jZone</title>
<path fill="none" stroke="black" d="M258.281,-850.586C244.265,-854.709 230.605,-861.118 220,-871 100.348,-982.5 82.0198,-1196.7 79.3764,-1274.16"/>
<polygon fill="none" stroke="black" points="75.8665,-1274.47 79.09,-1284.56 82.8639,-1274.66 75.8665,-1274.47"/>
</g>
<!-- \\participantInformationsZone -->
<g id="node35" class="node"><title>\\participantInformationsZone</title>
<g id="a_node35"><a xlink:href="modules.site_internet.zones.participantinformations.zone.html" xlink:title="participantInformationsZone" target="_parent">
<polygon fill="none" stroke="black" points="426.229,-808 231.771,-808 231.771,-772 426.229,-772 426.229,-808"/>
<text text-anchor="middle" x="329" y="-785.6" font-family="Courier,monospace" font-size="11.00">participantInformationsZone</text>
</a>
</g>
</g>
<!-- \\participantInformationsZone&#45;&gt;\\jZone -->
<g id="edge35" class="edge"><title>\\participantInformationsZone&#45;&gt;\\jZone</title>
<path fill="none" stroke="black" d="M231.88,-807.779C227.617,-810.457 223.619,-813.514 220,-817 86.7809,-945.329 77.3181,-1191.31 78.1575,-1274.61"/>
<polygon fill="none" stroke="black" points="74.6613,-1274.88 78.3226,-1284.83 81.6603,-1274.77 74.6613,-1274.88"/>
</g>
<!-- \\petitesAnnoncesZone -->
<g id="node36" class="node"><title>\\petitesAnnoncesZone</title>
<g id="a_node36"><a xlink:href="modules.site_internet.zones.petitesannonces.zone.html" xlink:title="petitesAnnoncesZone" target="_parent">
<polygon fill="none" stroke="black" points="399.921,-754 258.079,-754 258.079,-718 399.921,-718 399.921,-754"/>
<text text-anchor="middle" x="329" y="-731.6" font-family="Courier,monospace" font-size="11.00">petitesAnnoncesZone</text>
</a>
</g>
</g>
<!-- \\petitesAnnoncesZone&#45;&gt;\\jZone -->
<g id="edge36" class="edge"><title>\\petitesAnnoncesZone&#45;&gt;\\jZone</title>
<path fill="none" stroke="black" d="M258.109,-742.032C244.019,-746.178 230.372,-752.736 220,-763 145.162,-837.062 95.7705,-1174.56 82.5568,-1274.83"/>
<polygon fill="none" stroke="black" points="79.0764,-1274.45 81.257,-1284.82 86.0179,-1275.36 79.0764,-1274.45"/>
</g>
<!-- \\photoZone -->
<g id="node37" class="node"><title>\\photoZone</title>
<g id="a_node37"><a xlink:href="modules.site_internet.zones.photo.zone.html" xlink:title="photoZone" target="_parent">
<polygon fill="none" stroke="black" points="366.911,-700 291.089,-700 291.089,-664 366.911,-664 366.911,-700"/>
<text text-anchor="middle" x="329" y="-677.6" font-family="Courier,monospace" font-size="11.00">photoZone</text>
</a>
</g>
</g>
<!-- \\photoZone&#45;&gt;\\jZone -->
<g id="edge37" class="edge"><title>\\photoZone&#45;&gt;\\jZone</title>
<path fill="none" stroke="black" d="M291.234,-681.912C267.801,-683.852 238.475,-690.303 220,-709 138.342,-791.638 93.1406,-1168.33 81.8383,-1274.86"/>
<polygon fill="none" stroke="black" points="78.3519,-1274.55 80.7936,-1284.86 85.314,-1275.27 78.3519,-1274.55"/>
</g>
<!-- \\profilParticipantZone -->
<g id="node38" class="node"><title>\\profilParticipantZone</title>
<g id="a_node38"><a xlink:href="modules.site_internet.zones.profilparticipant.zone.html" xlink:title="profilParticipantZone" target="_parent">
<polygon fill="none" stroke="black" points="406.123,-646 251.877,-646 251.877,-610 406.123,-610 406.123,-646"/>
<text text-anchor="middle" x="329" y="-623.6" font-family="Courier,monospace" font-size="11.00">profilParticipantZone</text>
</a>
</g>
</g>
<!-- \\profilParticipantZone&#45;&gt;\\jZone -->
<g id="edge38" class="edge"><title>\\profilParticipantZone&#45;&gt;\\jZone</title>
<path fill="none" stroke="black" d="M251.681,-635.699C239.839,-639.897 228.678,-646.051 220,-655 131.573,-746.187 90.83,-1161.59 81.2646,-1274.56"/>
<polygon fill="none" stroke="black" points="77.7525,-1274.57 80.4121,-1284.82 84.7284,-1275.15 77.7525,-1274.57"/>
</g>
<!-- \\raidEpreuvesZone -->
<g id="node39" class="node"><title>\\raidEpreuvesZone</title>
<g id="a_node39"><a xlink:href="modules.site_internet.zones.raidepreuves.zone.html" xlink:title="raidEpreuvesZone" target="_parent">
<polygon fill="none" stroke="black" points="389.618,-592 268.382,-592 268.382,-556 389.618,-556 389.618,-592"/>
<text text-anchor="middle" x="329" y="-569.6" font-family="Courier,monospace" font-size="11.00">raidEpreuvesZone</text>
</a>
</g>
</g>
<!-- \\raidEpreuvesZone&#45;&gt;\\jZone -->
<g id="edge39" class="edge"><title>\\raidEpreuvesZone&#45;&gt;\\jZone</title>
<path fill="none" stroke="black" d="M268.34,-576.903C250.626,-580.65 232.609,-587.787 220,-601 124.606,-700.962 88.5617,-1156.7 80.7268,-1274.92"/>
<polygon fill="none" stroke="black" points="77.2287,-1274.78 80.0746,-1284.98 84.2141,-1275.23 77.2287,-1274.78"/>
</g>
<!-- \\raidInfosZone -->
<g id="node40" class="node"><title>\\raidInfosZone</title>
<g id="a_node40"><a xlink:href="modules.site_internet.zones.raidinfos.zone.html" xlink:title="raidInfosZone" target="_parent">
<polygon fill="none" stroke="black" points="379.814,-538 278.186,-538 278.186,-502 379.814,-502 379.814,-538"/>
<text text-anchor="middle" x="329" y="-515.6" font-family="Courier,monospace" font-size="11.00">raidInfosZone</text>
</a>
</g>
</g>
<!-- \\raidInfosZone&#45;&gt;\\jZone -->
<g id="edge40" class="edge"><title>\\raidInfosZone&#45;&gt;\\jZone</title>
<path fill="none" stroke="black" d="M278.01,-521.056C257.362,-524.099 234.836,-531.237 220,-547 117.741,-655.65 86.5633,-1150.84 80.2959,-1274.8"/>
<polygon fill="none" stroke="black" points="76.7903,-1274.83 79.7952,-1284.99 83.7819,-1275.17 76.7903,-1274.83"/>
</g>
<!-- \\raidLieuZone -->
<g id="node41" class="node"><title>\\raidLieuZone</title>
<g id="a_node41"><a xlink:href="modules.site_internet.zones.raidlieu.zone.html" xlink:title="raidLieuZone" target="_parent">
<polygon fill="none" stroke="black" points="376.713,-484 281.287,-484 281.287,-448 376.713,-448 376.713,-484"/>
<text text-anchor="middle" x="329" y="-461.6" font-family="Courier,monospace" font-size="11.00">raidLieuZone</text>
</a>
</g>
</g>
<!-- \\raidLieuZone&#45;&gt;\\jZone -->
<g id="edge41" class="edge"><title>\\raidLieuZone&#45;&gt;\\jZone</title>
<path fill="none" stroke="black" d="M281.223,-466.519C259.689,-469.258 235.53,-476.299 220,-493 110.912,-610.313 84.7234,-1144.6 79.9259,-1274.48"/>
<polygon fill="none" stroke="black" points="76.4171,-1274.67 79.5594,-1284.79 83.4127,-1274.92 76.4171,-1274.67"/>
</g>
<!-- \\raidMaterielZone -->
<g id="node42" class="node"><title>\\raidMaterielZone</title>
<g id="a_node42"><a xlink:href="modules.site_internet.zones.raidmateriel.zone.html" xlink:title="raidMaterielZone" target="_parent">
<polygon fill="none" stroke="black" points="389.618,-430 268.382,-430 268.382,-394 389.618,-394 389.618,-430"/>
<text text-anchor="middle" x="329" y="-407.6" font-family="Courier,monospace" font-size="11.00">raidMaterielZone</text>
</a>
</g>
</g>
<!-- \\raidMaterielZone&#45;&gt;\\jZone -->
<g id="edge42" class="edge"><title>\\raidMaterielZone&#45;&gt;\\jZone</title>
<path fill="none" stroke="black" d="M268.331,-414.572C250.51,-418.287 232.432,-425.488 220,-439 104.018,-565.058 82.9655,-1139 79.5904,-1274.34"/>
<polygon fill="none" stroke="black" points="76.0831,-1274.62 79.346,-1284.7 83.0811,-1274.78 76.0831,-1274.62"/>
</g>
<!-- \\raidsprecedentsZone -->
<g id="node43" class="node"><title>\\raidsprecedentsZone</title>
<g id="a_node43"><a xlink:href="modules.site_internet.zones.raidsprecedents.zone.html" xlink:title="raidsprecedentsZone" target="_parent">
<polygon fill="none" stroke="black" points="399.921,-376 258.079,-376 258.079,-340 399.921,-340 399.921,-376"/>
<text text-anchor="middle" x="329" y="-353.6" font-family="Courier,monospace" font-size="11.00">raidsprecedentsZone</text>
</a>
</g>
</g>
<!-- \\raidsprecedentsZone&#45;&gt;\\jZone -->
<g id="edge43" class="edge"><title>\\raidsprecedentsZone&#45;&gt;\\jZone</title>
<path fill="none" stroke="black" d="M258.138,-363.009C243.79,-367.176 230.025,-374.001 220,-385 97.0599,-519.883 81.2917,-1134.02 79.2886,-1274.37"/>
<polygon fill="none" stroke="black" points="75.7845,-1274.67 79.1542,-1284.72 82.7839,-1274.76 75.7845,-1274.67"/>
</g>
<!-- \\recapInscriptionsZone -->
<g id="node44" class="node"><title>\\recapInscriptionsZone</title>
<g id="a_node44"><a xlink:href="modules.site_internet.zones.recapinscriptions.zone.html" xlink:title="recapInscriptionsZone" target="_parent">
<polygon fill="none" stroke="black" points="406.123,-322 251.877,-322 251.877,-286 406.123,-286 406.123,-322"/>
<text text-anchor="middle" x="329" y="-299.6" font-family="Courier,monospace" font-size="11.00">recapInscriptionsZone</text>
</a>
</g>
</g>
<!-- \\recapInscriptionsZone&#45;&gt;\\jZone -->
<g id="edge44" class="edge"><title>\\recapInscriptionsZone&#45;&gt;\\jZone</title>
<path fill="none" stroke="black" d="M251.694,-311C239.703,-315.255 228.489,-321.608 220,-331 90.039,-474.786 79.704,-1129.67 79.0192,-1274.56"/>
<polygon fill="none" stroke="black" points="75.5184,-1274.82 78.9834,-1284.83 82.5184,-1274.84 75.5184,-1274.82"/>
</g>
<!-- \\RELEcolesZone -->
<g id="node45" class="node"><title>\\RELEcolesZone</title>
<g id="a_node45"><a xlink:href="modules.site_internet.zones.relecoles.zone.html" xlink:title="RELEcolesZone" target="_parent">
<polygon fill="none" stroke="black" points="379.814,-268 278.186,-268 278.186,-232 379.814,-232 379.814,-268"/>
<text text-anchor="middle" x="329" y="-245.6" font-family="Courier,monospace" font-size="11.00">RELEcolesZone</text>
</a>
</g>
</g>
<!-- \\RELEcolesZone&#45;&gt;\\jZone -->
<g id="edge45" class="edge"><title>\\RELEcolesZone&#45;&gt;\\jZone</title>
<path fill="none" stroke="black" d="M277.926,-250.684C257.134,-253.641 234.519,-260.815 220,-277 83.1027,-429.605 78.2145,-1124.48 78.7795,-1274.42"/>
<polygon fill="none" stroke="black" points="75.2805,-1274.66 78.8302,-1284.64 82.2804,-1274.62 75.2805,-1274.66"/>
</g>
<!-- \\RELInfosZone -->
<g id="node46" class="node"><title>\\RELInfosZone</title>
<g id="a_node46"><a xlink:href="modules.site_internet.zones.relinfos.zone.html" xlink:title="RELInfosZone" target="_parent">
<polygon fill="none" stroke="black" points="376.713,-214 281.287,-214 281.287,-178 376.713,-178 376.713,-214"/>
<text text-anchor="middle" x="329" y="-191.6" font-family="Courier,monospace" font-size="11.00">RELInfosZone</text>
</a>
</g>
</g>
<!-- \\RELInfosZone&#45;&gt;\\jZone -->
<g id="edge46" class="edge"><title>\\RELInfosZone&#45;&gt;\\jZone</title>
<path fill="none" stroke="black" d="M281.185,-196.201C259.507,-198.846 235.236,-205.9 220,-223 75.9661,-384.654 76.7922,-1121.32 78.5681,-1274.9"/>
<polygon fill="none" stroke="black" points="75.0687,-1274.97 78.6956,-1284.93 82.0681,-1274.89 75.0687,-1274.97"/>
</g>
<!-- \\RELLieuZone -->
<g id="node47" class="node"><title>\\RELLieuZone</title>
<g id="a_node47"><a xlink:href="modules.site_internet.zones.rellieu.zone.html" xlink:title="RELLieuZone" target="_parent">
<polygon fill="none" stroke="black" points="373.113,-160 284.887,-160 284.887,-124 373.113,-124 373.113,-160"/>
<text text-anchor="middle" x="329" y="-137.6" font-family="Courier,monospace" font-size="11.00">RELLieuZone</text>
</a>
</g>
</g>
<!-- \\RELLieuZone&#45;&gt;\\jZone -->
<g id="edge47" class="edge"><title>\\RELLieuZone&#45;&gt;\\jZone</title>
<path fill="none" stroke="black" d="M284.684,-141.766C262.141,-144.052 236.016,-150.913 220,-169 144.106,-254.705 90.4456,-1107.71 80.6219,-1274.72"/>
<polygon fill="none" stroke="black" points="77.1152,-1274.73 80.0264,-1284.92 84.1033,-1275.14 77.1152,-1274.73"/>
</g>
<!-- \\videoZone -->
<g id="node48" class="node"><title>\\videoZone</title>
<g id="a_node48"><a xlink:href="modules.site_internet.zones.video.zone.html" xlink:title="videoZone" target="_parent">
<polygon fill="none" stroke="black" points="366.911,-106 291.089,-106 291.089,-70 366.911,-70 366.911,-106"/>
<text text-anchor="middle" x="329" y="-83.6" font-family="Courier,monospace" font-size="11.00">videoZone</text>
</a>
</g>
</g>
<!-- \\videoZone&#45;&gt;\\jZone -->
<g id="edge48" class="edge"><title>\\videoZone&#45;&gt;\\jZone</title>
<path fill="none" stroke="black" d="M291.29,-87.1795C267.415,-88.7468 237.562,-95.0556 220,-115 140.588,-205.182 89.5274,-1103.13 80.4538,-1274.74"/>
<polygon fill="none" stroke="black" points="76.9456,-1274.81 79.917,-1284.98 83.936,-1275.17 76.9456,-1274.81"/>
</g>
<!-- \\myHtmlResponse -->
<g id="node49" class="node"><title>\\myHtmlResponse</title>
<g id="a_node49"><a xlink:href="responses.myHtmlResponse.class.html" xlink:title="myHtmlResponse" target="_parent">
<polygon fill="none" stroke="black" points="383.416,-52 274.584,-52 274.584,-16 383.416,-16 383.416,-52"/>
<text text-anchor="middle" x="329" y="-29.6" font-family="Courier,monospace" font-size="11.00">myHtmlResponse</text>
</a>
</g>
</g>
<!-- \\jResponseHtml -->
<g id="node53" class="node"><title>\\jResponseHtml</title>
<ellipse fill="none" stroke="black" cx="78" cy="-34" rx="73.0389" ry="18"/>
<text text-anchor="middle" x="78" y="-28.4" font-family="Times,serif" font-size="14.00" fill="gray">\jResponseHtml</text>
</g>
<!-- \\myHtmlResponse&#45;&gt;\\jResponseHtml -->
<g id="edge49" class="edge"><title>\\myHtmlResponse&#45;&gt;\\jResponseHtml</title>
<path fill="none" stroke="black" d="M274.583,-34C241.798,-34 199.122,-34 162.004,-34"/>
<polygon fill="none" stroke="black" points="161.694,-30.5001 151.694,-34 161.694,-37.5001 161.694,-30.5001"/>
</g>
</g>
</svg>
